<svg width="28" height="28" viewBox="0 0 28 28" fill="none" xmlns="http://www.w3.org/2000/svg">
<path d="M14 24.5C19.799 24.5 24.5 19.799 24.5 14C24.5 8.20101 19.799 3.5 14 3.5C8.20101 3.5 3.5 8.20101 3.5 14C3.5 19.799 8.20101 24.5 14 24.5Z" stroke="#20BCCB" stroke-width="1.8"/>
<path d="M14 19.2C16.8719 19.2 19.2 16.8719 19.2 14C19.2 11.1281 16.8719 8.8 14 8.8C11.1281 8.8 8.8 11.1281 8.8 14C8.8 16.8719 11.1281 19.2 14 19.2Z" stroke="#20BCCB" stroke-opacity="0.55" stroke-width="1.4"/>
<path d="M14 14L21.6 8.2" stroke="#F7FAFC" stroke-width="1.8" stroke-linecap="round"/>
<path d="M20.8 10.95C21.9874 10.95 22.95 9.98741 22.95 8.8C22.95 7.61259 21.9874 6.65 20.8 6.65C19.6126 6.65 18.65 7.61259 18.65 8.8C18.65 9.98741 19.6126 10.95 20.8 10.95Z" fill="#F4B740"/>
<path d="M14 15.5C14.8284 15.5 15.5 14.8284 15.5 14C15.5 13.1716 14.8284 12.5 14 12.5C13.1716 12.5 12.5 13.1716 12.5 14C12.5 14.8284 13.1716 15.5 14 15.5Z" fill="#20BCCB"/>
</svg>
