<svg width="18" height="18" viewBox="0 0 18 18" fill="none" xmlns="http://www.w3.org/2000/svg">
<path d="M7.7 2.70001H10.3L10.8 4.30001C11.3 4.50001 11.7 4.70001 12.1 5.00001L13.8 4.60001L15.1 6.90001L13.9 8.10001C14 8.40001 14 8.70001 14 9.00001C14 9.30001 14 9.60001 13.9 9.90001L15.1 11.1L13.8 13.4L12.1 13C11.7 13.3 11.3 13.5 10.8 13.7L10.3 15.3H7.7L7.2 13.7C6.7 13.5 6.3 13.3 5.9 13L4.2 13.4L2.9 11.1L4.1 9.90001C4 9.60001 4 9.30001 4 9.00001C4 8.70001 4 8.40001 4.1 8.10001L2.9 6.90001L4.2 4.60001L5.9 5.00001C6.3 4.70001 6.7 4.50001 7.2 4.30001L7.7 2.70001Z" stroke="#7995A6" stroke-width="1.3" stroke-linejoin="round"/>
<path d="M9 11.2C10.215 11.2 11.2 10.215 11.2 8.99999C11.2 7.78496 10.215 6.79999 9 6.79999C7.78497 6.79999 6.8 7.78496 6.8 8.99999C6.8 10.215 7.78497 11.2 9 11.2Z" stroke="#7995A6" stroke-width="1.5"/>
</svg>
