<svg width="18" height="18" viewBox="0 0 18 18" fill="none" xmlns="http://www.w3.org/2000/svg">
<path d="M3 3.5H15V12.2H8L4.5 15V12.2H3V3.5Z" stroke="#7995A6" stroke-width="1.5" stroke-linejoin="round"/>
<path d="M6.5 8.6C6.94183 8.6 7.3 8.24183 7.3 7.8C7.3 7.35817 6.94183 7 6.5 7C6.05817 7 5.7 7.35817 5.7 7.8C5.7 8.24183 6.05817 8.6 6.5 8.6Z" fill="#7995A6"/>
<path d="M9 8.6C9.44183 8.6 9.8 8.24183 9.8 7.8C9.8 7.35817 9.44183 7 9 7C8.55817 7 8.2 7.35817 8.2 7.8C8.2 8.24183 8.55817 8.6 9 8.6Z" fill="#7995A6"/>
<path d="M11.5 8.6C11.9418 8.6 12.3 8.24183 12.3 7.8C12.3 7.35817 11.9418 7 11.5 7C11.0582 7 10.7 7.35817 10.7 7.8C10.7 8.24183 11.0582 8.6 11.5 8.6Z" fill="#7995A6"/>
</svg>
