<svg width="18" height="18" viewBox="0 0 18 18" fill="none" xmlns="http://www.w3.org/2000/svg">
<path d="M6.1 2.25H3.65C2.8768 2.25 2.25 2.8768 2.25 3.65V6.1C2.25 6.8732 2.8768 7.5 3.65 7.5H6.1C6.8732 7.5 7.5 6.8732 7.5 6.1V3.65C7.5 2.8768 6.8732 2.25 6.1 2.25Z" stroke="#21C0CF" stroke-width="1.5"/>
<path d="M14.35 2.25H11.9C11.1268 2.25 10.5 2.8768 10.5 3.65V6.1C10.5 6.8732 11.1268 7.5 11.9 7.5H14.35C15.1232 7.5 15.75 6.8732 15.75 6.1V3.65C15.75 2.8768 15.1232 2.25 14.35 2.25Z" stroke="#21C0CF" stroke-width="1.5"/>
<path d="M6.1 10.5H3.65C2.8768 10.5 2.25 11.1268 2.25 11.9V14.35C2.25 15.1232 2.8768 15.75 3.65 15.75H6.1C6.8732 15.75 7.5 15.1232 7.5 14.35V11.9C7.5 11.1268 6.8732 10.5 6.1 10.5Z" stroke="#21C0CF" stroke-width="1.5"/>
<path d="M14.35 10.5H11.9C11.1268 10.5 10.5 11.1268 10.5 11.9V14.35C10.5 15.1232 11.1268 15.75 11.9 15.75H14.35C15.1232 15.75 15.75 15.1232 15.75 14.35V11.9C15.75 11.1268 15.1232 10.5 14.35 10.5Z" stroke="#21C0CF" stroke-width="1.5"/>
</svg>
