<svg width="18" height="18" viewBox="0 0 18 18" fill="none" xmlns="http://www.w3.org/2000/svg">
<path d="M7 8.9C8.49117 8.9 9.7 7.69117 9.7 6.2C9.7 4.70883 8.49117 3.5 7 3.5C5.50883 3.5 4.3 4.70883 4.3 6.2C4.3 7.69117 5.50883 8.9 7 8.9Z" stroke="#7995A6" stroke-width="1.5"/>
<path d="M2.5 15C2.8 11.9 4.5 10.5 7 10.5C9.5 10.5 11.2 11.9 11.5 15M11.2 4.20001C12.8 4.30001 14 5.30001 14 6.70001C14 8.10001 12.9 9.10001 11.4 9.30001M12.2 10.7C14.1 11 15.3 12.3 15.5 14.5" stroke="#7995A6" stroke-width="1.5" stroke-linecap="round"/>
</svg>
