<svg width="18" height="18" viewBox="0 0 18 18" fill="none" xmlns="http://www.w3.org/2000/svg">
<path d="M9 6.6C12.0376 6.6 14.5 5.57026 14.5 4.3C14.5 3.02975 12.0376 2 9 2C5.96243 2 3.5 3.02975 3.5 4.3C3.5 5.57026 5.96243 6.6 9 6.6Z" stroke="#7995A6" stroke-width="1.5"/>
<path d="M3.5 4.29999V8.99999M3.5 8.99999C3.5 10.3 6 11.3 9 11.3C12 11.3 14.5 10.3 14.5 8.99999M3.5 8.99999V13.7C3.5 15 6 16 9 16C12 16 14.5 15 14.5 13.7V8.99999M14.5 8.99999V4.29999" stroke="#7995A6" stroke-width="1.5"/>
</svg>
